<?xml version="1.0" encoding="UTF-8" standalone="no"?>
<svg
   xmlns:dc="http://purl.org/dc/elements/1.1/"
   xmlns:cc="http://creativecommons.org/ns#"
   xmlns:rdf="http://www.w3.org/1999/02/22-rdf-syntax-ns#"
   xmlns:svg="http://www.w3.org/2000/svg"
   xmlns="http://www.w3.org/2000/svg"
   xmlns:sodipodi="http://sodipodi.sourceforge.net/DTD/sodipodi-0.dtd"
   xmlns:inkscape="http://www.inkscape.org/namespaces/inkscape"
   width="210mm"
   height="297mm"
   viewBox="0 0 210 297"
   version="1.1"
   id="svg923"
   inkscape:version="1.0.1 (3bc2e813f5, 2020-09-07)"
   sodipodi:docname="Itrieddrawing.svg">
  <defs
     id="defs917" />
  <sodipodi:namedview
     id="base"
     pagecolor="#ffffff"
     bordercolor="#666666"
     borderopacity="1.0"
     inkscape:pageopacity="0.0"
     inkscape:pageshadow="2"
     inkscape:zoom="0.98994949"
     inkscape:cx="183.37366"
     inkscape:cy="407.07057"
     inkscape:document-units="mm"
     inkscape:current-layer="layer1"
     inkscape:document-rotation="0"
     showgrid="false"
     inkscape:window-width="867"
     inkscape:window-height="967"
     inkscape:window-x="78"
     inkscape:window-y="4"
     inkscape:window-maximized="0" />
  <metadata
     id="metadata920">
    <rdf:RDF>
      <cc:Work
         rdf:about="">
        <dc:format>image/svg+xml</dc:format>
        <dc:type
           rdf:resource="http://purl.org/dc/dcmitype/StillImage" />
        <dc:title></dc:title>
      </cc:Work>
    </rdf:RDF>
  </metadata>
  <g
     inkscape:label="Layer 1"
     inkscape:groupmode="layer"
     id="layer1">
    <path
       style="fill:#ff00c7;stroke:#000000;stroke-width:0.264583px;stroke-linecap:butt;stroke-linejoin:miter;stroke-opacity:1;fill-opacity:1"
       d="m 32.883929,84.666667 v 0 0 c 15.279796,-12.37329 27.755175,-2.311245 41.199404,0 v 0 0 C 52.322029,85.922999 46.063472,90.87046 45.357143,97.139881 l 10.961309,6.047619 v 0 c 24.668986,-19.904132 46.309528,-9.523812 68.035718,0 v 0.37798 L 128.13393,88.824405 127,88.068452 C 106.76717,72.200823 82.972413,68.799927 56.696429,74.083333 78.092783,53.756378 114.35963,65.290379 144.76488,78.997024 V 79.375 l 6.80357,-17.386907 C 107.89159,43.161501 64.868987,33.092675 24.190476,63.122023 31.75,83.154762 31.75,83.154762 31.75,83.154762"
       id="path925"
       sodipodi:nodetypes="cccccccccccccccccc" />
  </g>
</svg>
